<svg xmlns="http://www.w3.org/2000/svg" width="4441" height="1302" viewBox="0 0 4441 1302" version="1.1">
	<path d="M 2604.794 0.539 C 2604.498 0.836, 2576.860 1.494, 2543.377 2.003 C 2455.066 3.343, 2428.206 5.912, 2390 16.673 C 2352.776 27.158, 2300.705 51.942, 2271.149 73.243 C 2252.713 86.530, 2231.528 108.324, 2213.223 132.835 C 2180.217 177.031, 2150.793 248.133, 2137.009 317 C 2130.214 350.948, 2121.661 419.720, 2118.044 469.500 C 2116.924 484.900, 2115.566 501.100, 2115.025 505.500 C 2109.270 552.288, 2108.372 630.898, 2112.953 687 C 2113.469 693.325, 2114.360 724.600, 2114.933 756.500 C 2116.278 831.430, 2118.047 860.895, 2123.070 892 C 2124.181 898.875, 2126.208 913.500, 2127.576 924.500 C 2137.562 1004.807, 2153.334 1060.026, 2182.987 1118.500 C 2200.069 1152.185, 2209.280 1165.890, 2233.162 1193.161 C 2257.712 1221.193, 2276.711 1235.203, 2319.080 1256.516 C 2384.501 1289.425, 2419.835 1296.940, 2519 1299.036 C 2545.125 1299.588, 2581.122 1300.559, 2598.994 1301.195 C 2628.665 1302.250, 2632.228 1302.200, 2639.994 1300.623 C 2728.806 1282.588, 2776.628 1266.396, 2807.632 1243.864 C 2813.205 1239.814, 2821.305 1233.968, 2825.632 1230.874 C 2855.306 1209.657, 2891.652 1174.912, 2904.903 1155.098 C 2908.065 1150.369, 2913.967 1140.650, 2918.019 1133.500 C 2922.070 1126.350, 2930.321 1111.972, 2936.353 1101.549 C 2961.016 1058.932, 2972.940 1028.427, 2975.460 1001.500 C 2975.820 997.650, 2978.339 980.664, 2981.058 963.754 C 2983.776 946.844, 2986 930.401, 2986 927.214 C 2986 924.027, 2986.730 916.263, 2987.623 909.960 C 2988.936 900.689, 2989.136 893.438, 2988.670 872 C 2988.354 857.425, 2988.463 843.292, 2988.913 840.593 C 2989.717 835.770, 2989.245 823.209, 2986.996 789.500 C 2985.759 770.965, 2985.973 767.698, 2990.667 733.500 C 2994.091 708.551, 2994.521 672.655, 2991.571 658 C 2985.023 625.476, 2979.878 614.198, 2967.724 605.725 C 2957.521 598.611, 2957.712 598.654, 2932.500 597.783 C 2873.955 595.759, 2871.055 595.750, 2857.500 597.551 C 2842.733 599.512, 2815.022 599.117, 2782.500 596.480 C 2772.600 595.677, 2758.650 594.567, 2751.500 594.012 C 2744.350 593.458, 2716.675 592.547, 2690 591.989 C 2663.325 591.430, 2634.074 590.458, 2624.998 589.829 C 2610.669 588.835, 2607.211 588.901, 2598.741 590.332 C 2568.345 595.468, 2545.975 613.648, 2539.474 638.500 C 2537.706 645.258, 2538.171 677.250, 2540.169 686.315 C 2540.842 689.365, 2541.280 712.659, 2541.365 749.887 L 2541.500 808.644 2543.967 812.246 C 2547.349 817.183, 2555.522 822.241, 2568 827.118 C 2586.033 834.166, 2587.736 834.298, 2665.750 834.691 C 2724.045 834.985, 2735 835.260, 2735 836.430 C 2735 839.329, 2728.866 892.903, 2727.470 902.197 C 2720.937 945.695, 2710.078 972.213, 2688.069 998.420 C 2683.875 1003.414, 2679.012 1009.750, 2677.264 1012.500 C 2671.893 1020.947, 2655.974 1032.433, 2641.822 1038.071 C 2602.787 1053.622, 2557.061 1059.689, 2506.669 1056.003 C 2484.302 1054.367, 2458.630 1045.134, 2442.798 1033.033 C 2429.957 1023.217, 2411.586 1003.293, 2407.270 994.500 C 2405.110 990.100, 2401.300 983.350, 2398.803 979.500 C 2392.039 969.070, 2390.454 965.496, 2386.566 951.899 C 2381.757 935.087, 2379.404 923.207, 2377.475 906 C 2376.581 898.025, 2374.985 885.650, 2373.929 878.500 C 2372.874 871.350, 2371.557 858.300, 2371.004 849.500 C 2368.340 807.122, 2366.982 780.521, 2366.970 770.500 C 2366.963 764.450, 2366.282 754.775, 2365.458 749 C 2362.930 731.294, 2362.596 702.812, 2364.479 665.500 C 2366.287 629.663, 2366.642 584.289, 2365.226 570 C 2364.650 564.187, 2364.786 558.654, 2365.657 552.500 C 2366.357 547.550, 2366.942 538.100, 2366.957 531.500 C 2366.981 520.747, 2367.992 500.983, 2370.972 453 C 2371.502 444.475, 2373.040 429.400, 2374.391 419.500 C 2375.741 409.600, 2377.347 397, 2377.958 391.500 C 2381.177 362.554, 2388.883 337.391, 2399.643 320.697 C 2402.055 316.955, 2405.648 310.655, 2407.628 306.697 C 2411.964 298.028, 2436.061 272.909, 2447.231 265.414 C 2462.721 255.022, 2484.975 247.651, 2506.274 245.859 C 2523.179 244.437, 2564.915 245.341, 2579 247.435 C 2631.070 255.176, 2661.612 268.726, 2680.291 292.372 C 2704.941 323.577, 2714.646 344.003, 2719.949 375.843 C 2724.759 404.722, 2732.269 427.202, 2739.533 434.467 C 2749.113 444.046, 2757.056 445.242, 2795.500 442.895 C 2809.444 442.043, 2838.922 441.542, 2876 441.526 C 2932.974 441.501, 2934.744 441.442, 2943.847 439.273 C 2976.587 431.473, 2990.071 412.494, 2988.721 376.111 C 2987.986 356.316, 2986.578 349.075, 2970.012 279.878 C 2964.322 256.113, 2954.932 233.899, 2937.514 203 C 2935.189 198.875, 2930.317 189.650, 2926.687 182.500 C 2906.900 143.527, 2874.836 107.697, 2830.157 74.634 C 2823.369 69.610, 2813.123 62.028, 2807.388 57.785 C 2782.088 39.064, 2741.736 23.667, 2684.500 10.895 C 2632.198 -0.776, 2636.766 0, 2620.405 0 C 2612.116 0, 2605.091 0.243, 2604.794 0.539 M 3871 5.056 C 3840.558 6.971, 3825.158 8.787, 3821.227 10.925 C 3819.177 12.039, 3815.044 13.893, 3812.042 15.043 C 3794.831 21.639, 3784.489 36.852, 3780.799 61 C 3778.598 75.405, 3779.155 127.698, 3781.822 156.993 C 3785.463 196.981, 3785.998 214.852, 3784.744 254.500 C 3783.372 297.859, 3783.391 316.201, 3784.836 346.500 C 3785.440 359.150, 3786.388 387.950, 3786.943 410.500 C 3787.921 450.265, 3788.553 459.673, 3794.424 522 C 3799.986 581.032, 3800.148 604.084, 3795.445 667 C 3792.934 700.586, 3790.307 808.998, 3791.689 822 C 3791.952 824.475, 3791.230 831.641, 3790.084 837.925 C 3788.938 844.209, 3788 851.759, 3788 854.703 C 3788 877.031, 3780.164 921.085, 3771.849 945.500 C 3761.862 974.826, 3738.217 1010.632, 3719.500 1024.773 C 3687.933 1048.624, 3626.624 1060.755, 3561.669 1056.003 C 3540.320 1054.441, 3515.368 1045.806, 3499.500 1034.489 C 3487.868 1026.192, 3465.942 1002.550, 3461.024 993 C 3458.616 988.325, 3455.212 982.250, 3453.458 979.500 C 3440.166 958.653, 3430.020 921.875, 3430.005 894.482 C 3430.002 889.554, 3429.039 882.231, 3427.507 875.482 C 3426.136 869.442, 3424.568 858.425, 3424.023 851 C 3421.968 822.997, 3419.882 781.445, 3419.043 751.796 C 3418.566 734.909, 3417.845 720.558, 3417.442 719.906 C 3417.039 719.253, 3416.342 713.495, 3415.893 707.110 C 3415.445 700.724, 3414.618 691.450, 3414.057 686.500 C 3412.594 673.607, 3412.804 640.235, 3414.516 613.500 C 3416.905 576.197, 3417.278 553.250, 3415.961 524.500 C 3413.757 476.360, 3413.682 448.201, 3415.673 416.538 C 3418.332 374.275, 3417.605 289.345, 3413.832 201.500 C 3411.927 157.146, 3412.146 118.609, 3414.377 105.500 C 3415.925 96.404, 3416.140 91.645, 3415.618 78 C 3414.165 40.046, 3409.333 23.467, 3397.153 14.648 L 3392.805 11.500 3345.685 11.221 C 3303.725 10.973, 3297.850 11.131, 3292.033 12.664 C 3286.407 14.146, 3279.945 14.398, 3245.500 14.478 C 3207.528 14.566, 3205.103 14.682, 3197.675 16.763 C 3177.148 22.516, 3166.388 33.957, 3160.505 56.289 C 3156.393 71.898, 3155.846 82.580, 3157.377 117.336 C 3158.133 134.476, 3158.797 149.850, 3158.853 151.500 C 3159.741 177.622, 3160.767 197.814, 3161.246 198.589 C 3161.577 199.124, 3160.936 203.373, 3159.823 208.031 C 3158.007 215.627, 3157.913 217.531, 3158.905 226.500 C 3159.514 232, 3160.039 251.800, 3160.073 270.500 C 3160.107 289.200, 3160.678 324.075, 3161.342 348 C 3162.097 375.226, 3162.244 399.918, 3161.734 414 C 3160.977 434.916, 3161.591 489.358, 3163.990 614 C 3164.821 657.175, 3167.223 725.480, 3170.022 785.500 C 3173.332 856.471, 3182.491 939.044, 3192.484 988 C 3205.856 1053.505, 3235.262 1124.232, 3267.546 1168.531 C 3276.375 1180.646, 3296.456 1203.518, 3306.385 1212.769 C 3338.343 1242.543, 3410.006 1278.006, 3460.500 1289.034 C 3492.110 1295.938, 3511.348 1297.652, 3572 1298.967 C 3597.575 1299.522, 3631.100 1300.437, 3646.500 1301.001 C 3689.349 1302.571, 3685.084 1302.936, 3723.256 1294.443 C 3802.120 1276.897, 3830.577 1266.237, 3866.719 1240.698 C 3932.637 1194.120, 3961.100 1161.151, 3996.819 1090 C 4023.813 1036.229, 4028.677 1023.439, 4030.475 1001.500 C 4030.836 997.100, 4033.078 980.900, 4035.458 965.500 C 4037.838 950.100, 4040.053 932.996, 4040.382 927.492 C 4040.710 921.988, 4042.080 910.963, 4043.427 902.992 C 4046.012 887.694, 4046.877 878.846, 4049.731 838.500 C 4052.828 794.724, 4051.199 650.550, 4046.917 589.500 C 4046.163 578.744, 4046.052 562.193, 4046.580 539 C 4048.303 463.218, 4046.741 340.699, 4043.851 325 C 4042.240 316.244, 4042.166 217.461, 4043.755 195.064 C 4044.396 186.024, 4045.919 166.899, 4047.139 152.564 C 4051.925 96.322, 4049.284 52.311, 4039.932 32.440 C 4031.852 15.274, 4015.759 8.167, 3980 5.974 C 3956.706 4.545, 3888.277 3.969, 3871 5.056 M 62.500 12.990 C 60.850 13.528, 53.425 14.673, 46 15.535 C 19.545 18.604, 11.722 22.592, 5.517 36.172 C -3.315 55.500, -1.203 75.309, 13.280 109 C 15.762 114.775, 20.323 127.901, 23.414 138.168 C 26.505 148.435, 29.667 158.352, 30.441 160.204 C 33.462 167.436, 39.077 188.803, 45.497 217.500 C 49.188 234, 53.490 251.550, 55.058 256.500 C 58.929 268.729, 73.111 317.823, 76.867 332 C 80.669 346.352, 109.219 468.452, 111.473 480 C 114.304 494.500, 120.475 517.079, 133.505 560.602 C 140.404 583.646, 149.227 615.550, 153.112 631.500 C 170.965 704.793, 176.740 727.179, 183.680 750 C 187.778 763.475, 192.253 779, 193.624 784.500 C 194.996 790, 198.295 802.150, 200.956 811.500 C 203.617 820.850, 208.101 838.322, 210.921 850.328 C 213.740 862.333, 217.180 874.933, 218.566 878.328 C 219.952 881.722, 223.122 892.600, 225.612 902.500 C 228.101 912.400, 236.373 943.450, 243.994 971.500 C 261.867 1037.287, 261.974 1037.715, 263.553 1049.500 C 264.575 1057.129, 269.410 1074.150, 283.946 1121.294 C 294.426 1155.281, 303.008 1184.081, 303.017 1185.294 C 303.052 1189.753, 308.127 1206.391, 316.196 1228.500 C 321.941 1244.238, 331.003 1255.524, 348.500 1268.729 C 367.698 1283.218, 374.919 1284.376, 446 1284.367 C 511.563 1284.359, 523.645 1282.947, 546.234 1272.653 C 564.644 1264.263, 573.695 1255.939, 581.932 1239.821 C 585.395 1233.045, 589.042 1226.150, 590.037 1224.500 C 597.115 1212.761, 608.546 1169.787, 615.972 1127 C 618.120 1114.625, 620.814 1101.815, 621.959 1098.534 C 625.321 1088.899, 643.626 1018.951, 649.053 995 C 650.237 989.775, 652.923 979.847, 655.022 972.938 C 657.122 966.028, 659.138 958.603, 659.503 956.438 C 659.868 954.272, 661.985 946.875, 664.207 940 C 669.646 923.178, 678.073 890.030, 678.952 882 C 679.353 878.348, 682.171 868.269, 685.385 859 C 688.531 849.925, 694.256 831.925, 698.108 819 C 701.959 806.075, 707.524 787.850, 710.475 778.500 C 719.485 749.944, 725.754 728.782, 726.942 722.918 C 727.563 719.847, 730.082 709.972, 732.538 700.971 C 734.994 691.971, 739.264 673.109, 742.027 659.054 C 749.165 622.739, 752.742 605.894, 755.628 595 C 759.531 580.265, 766.194 560.787, 767.023 561.688 C 769.167 564.019, 789.102 631.580, 793.523 651.500 C 799.122 676.721, 812.256 727.247, 819.518 751.500 C 824.129 766.900, 829.524 786.025, 831.506 794 C 833.489 801.975, 836.420 812.775, 838.020 818 C 839.620 823.225, 843.208 837.175, 845.995 849 C 848.782 860.825, 852.374 873.912, 853.978 878.082 C 855.583 882.252, 858.971 893.952, 861.508 904.082 C 864.045 914.212, 870.794 939.600, 876.506 960.500 C 892.403 1018.667, 897.710 1039.669, 898.995 1049.500 C 899.837 1055.941, 905.548 1075.995, 919.086 1120.041 C 929.489 1153.888, 938.004 1182.463, 938.008 1183.541 C 938.037 1190.944, 951.971 1231.968, 957.773 1241.734 C 963.598 1251.540, 969.479 1257.686, 982.458 1267.532 C 995.255 1277.241, 1001.350 1279.863, 1017.556 1282.634 C 1032.306 1285.156, 1127.851 1285.154, 1145.265 1282.631 C 1180.501 1277.526, 1206.942 1262.192, 1216.729 1241.187 C 1218.090 1238.265, 1221.152 1232.353, 1223.532 1228.050 C 1233.214 1210.546, 1245.057 1166.371, 1252.499 1120 C 1253.426 1114.225, 1255.707 1104.550, 1257.569 1098.500 C 1262.113 1083.734, 1276.634 1028.290, 1282.450 1003.500 C 1285.031 992.500, 1288.640 978.775, 1290.469 973 C 1292.299 967.225, 1294.347 959.800, 1295.021 956.500 C 1295.695 953.200, 1298.220 944.330, 1300.631 936.788 C 1303.043 929.247, 1306.353 917.322, 1307.988 910.288 C 1309.623 903.255, 1311.463 895.925, 1312.076 894 C 1312.690 892.075, 1313.553 887.350, 1313.993 883.500 C 1314.473 879.309, 1317.230 869.477, 1320.863 859 C 1324.201 849.375, 1330.349 830.025, 1334.525 816 C 1338.702 801.975, 1343.677 785.640, 1345.581 779.701 C 1350.582 764.103, 1360.575 729.647, 1362.463 721.489 C 1363.353 717.645, 1365.824 709.282, 1367.955 702.904 C 1373.180 687.261, 1376.820 671.936, 1383.487 637.500 C 1392.522 590.830, 1399.317 566.031, 1407.479 549.938 C 1411.327 542.352, 1411.749 540.932, 1416.542 519.500 C 1418.509 510.700, 1420.982 500.350, 1422.037 496.500 C 1423.092 492.650, 1424.673 485.675, 1425.550 481 C 1428.363 466.004, 1449.713 382.179, 1455.985 361.500 C 1461.980 341.737, 1471.315 305.298, 1474.506 289.204 C 1475.410 284.641, 1477.212 277.787, 1478.509 273.972 C 1479.807 270.158, 1482.260 260.951, 1483.961 253.514 C 1485.662 246.076, 1487.515 238.775, 1488.080 237.289 C 1488.645 235.804, 1492.213 223.318, 1496.009 209.544 C 1505.056 176.714, 1513.582 148.584, 1526.182 110 L 1536.468 78.500 1536.456 62.500 C 1536.441 43.672, 1535 38.554, 1527.304 29.993 C 1516.477 17.951, 1500.348 14.477, 1463.289 16.206 C 1452.405 16.714, 1436.750 16.804, 1428.500 16.407 C 1400.206 15.045, 1341.443 15.738, 1332.529 17.540 C 1304.599 23.184, 1286.752 45.164, 1271.173 93.102 C 1256.136 139.373, 1227.085 236.206, 1222.601 255 C 1221.224 260.775, 1218.699 271.350, 1216.991 278.500 C 1213.361 293.703, 1203.248 329.689, 1196.197 352.500 C 1191.222 368.594, 1188.697 379.583, 1182.986 410 C 1177.727 438.011, 1167.619 478.715, 1160.015 502.500 C 1158.432 507.450, 1156.388 516.225, 1155.472 522 C 1150.239 554.992, 1145.384 573.927, 1130.980 617.500 C 1117.643 657.847, 1112.561 676.830, 1101.532 727.500 C 1093.431 764.716, 1085.390 798.481, 1084.063 800.852 C 1082.093 804.372, 1074.393 773.848, 1068.968 741.015 C 1062.298 700.645, 1060.934 694.179, 1055.466 677 C 1054.154 672.875, 1051.938 663.784, 1050.544 656.798 C 1049.149 649.812, 1047.127 641.712, 1046.051 638.798 C 1044.974 635.884, 1042.484 626.075, 1040.518 617 C 1036.449 598.222, 1026.853 560.721, 1018.023 529.088 C 1015.810 521.161, 1013.998 513.511, 1013.996 512.088 C 1013.992 509.763, 1009.963 497.467, 1002.630 477.401 C 1001.204 473.497, 999.361 466.972, 998.535 462.901 C 997.709 458.831, 995.678 450.550, 994.022 444.500 C 992.365 438.450, 988.571 423.600, 985.590 411.500 C 982.609 399.400, 974.964 370.766, 968.602 347.868 C 955.787 301.748, 949.759 278.022, 945.110 255.405 C 940.071 230.888, 923.302 159.716, 919.966 148.688 C 918.271 143.085, 914.919 132.425, 912.517 125 C 910.115 117.575, 907.479 108.575, 906.660 105 C 905.840 101.425, 903.517 92.875, 901.498 86 C 899.478 79.125, 896.706 69.675, 895.337 65 C 888.049 40.117, 869.246 23.908, 840.141 17.418 C 829.076 14.951, 828.376 14.915, 813.141 16.035 C 804.538 16.667, 793.450 16.914, 788.500 16.584 C 783.550 16.254, 769.375 15.312, 757 14.491 C 708.420 11.266, 694.389 12.165, 679.500 19.460 C 656.952 30.508, 640.662 59.057, 630.977 104.500 C 627.591 120.388, 623.673 133.698, 610.959 172.500 C 602.104 199.525, 593.957 227.500, 588.680 249 C 586.723 256.975, 582.576 273.850, 579.464 286.500 C 576.353 299.150, 569.827 323, 564.963 339.500 C 553.877 377.105, 552.870 381.108, 548.494 405 C 543.045 434.752, 531.479 481.741, 524.986 500.507 C 523.846 503.803, 521.557 514.375, 519.900 524 C 513.837 559.222, 509.658 575.242, 494.991 619.500 C 481.798 659.309, 477.860 674.125, 466.015 728.500 C 458.451 763.227, 449.452 800.882, 448.486 801.847 C 446.183 804.151, 438.919 773.108, 431.515 729.320 C 427.439 705.215, 424.808 692.634, 421.896 683.320 C 419.691 676.269, 416.805 665.100, 415.483 658.500 C 414.161 651.900, 412.145 643.800, 411.004 640.500 C 409.862 637.200, 407.356 627.300, 405.434 618.500 C 403.512 609.700, 399.661 593.725, 396.876 583 C 394.092 572.275, 390.979 559.808, 389.960 555.296 C 388.941 550.784, 386.295 541.210, 384.081 534.021 C 381.867 526.831, 379.340 517.133, 378.466 512.468 C 376.791 503.529, 374.282 495.599, 369.031 482.641 C 367.279 478.319, 364.775 469.994, 363.465 464.141 C 362.155 458.289, 359.945 449.450, 358.554 444.500 C 357.163 439.550, 353.547 425.375, 350.518 413 C 347.489 400.625, 339.807 371.825, 333.446 349 C 321.121 304.769, 313.717 275.560, 309.494 254.500 C 300.835 211.321, 291.012 170.306, 280.156 132 C 276.338 118.525, 272.476 104.200, 271.576 100.167 C 268.708 87.322, 259.032 59.785, 254.957 52.866 C 241.626 30.236, 213.563 18.186, 169 15.956 C 158.825 15.447, 145.325 14.582, 139 14.034 C 122.192 12.578, 66.113 11.813, 62.500 12.990 M 1785 13.086 C 1746.899 14.471, 1731.601 15.843, 1722.594 18.684 C 1697.876 26.479, 1684.984 39.588, 1682.057 59.902 C 1680.190 72.858, 1680.533 88.932, 1682.927 100.657 C 1684.976 110.696, 1685 112.762, 1685 278.848 C 1685 389.792, 1684.660 447.092, 1684 447.500 C 1683.420 447.858, 1683 453.330, 1683 460.518 C 1683 467.338, 1682.555 476.199, 1682.012 480.209 C 1678.605 505.349, 1677.683 566.246, 1678.094 739 C 1678.983 1112.621, 1678.725 1191.702, 1676.560 1209 C 1674.066 1228.917, 1673.937 1251.320, 1676.271 1259.064 C 1678.399 1266.125, 1682.802 1272.219, 1688.242 1275.634 C 1690.584 1277.104, 1693.677 1279.106, 1695.115 1280.083 C 1698.536 1282.408, 1709.257 1285.571, 1720.500 1287.573 C 1731.312 1289.499, 1776.745 1289.690, 1789.409 1287.864 C 1799.992 1286.338, 1823.317 1287.293, 1844 1290.100 C 1891.059 1296.487, 1911.276 1291.081, 1921.042 1269.500 C 1927.075 1256.169, 1927.848 1244.548, 1925.040 1209.409 C 1922.638 1179.364, 1923.333 1133.864, 1926.490 1114.500 C 1927.745 1106.802, 1927.961 1075.704, 1927.984 899.500 C 1928 775.760, 1928.409 686.113, 1929.009 675 C 1931.302 632.517, 1931.875 603.428, 1930.810 583.500 C 1930.222 572.500, 1929.756 562.825, 1929.773 562 C 1929.944 553.849, 1932.327 511.803, 1933.627 494 C 1935.094 473.914, 1935.181 457.769, 1934.441 343.500 C 1933.523 201.743, 1933.539 185.506, 1934.653 127 C 1935.911 60.929, 1935.657 57.815, 1927.462 38.948 C 1922.979 28.625, 1920.461 25.919, 1909.934 20.114 C 1899.293 14.245, 1841.916 11.018, 1785 13.086 M 4294.339 1054.056 C 4241.024 1061.004, 4195.861 1112.844, 4193.330 1170 C 4192.317 1192.889, 4196.641 1212.465, 4207.577 1234.499 C 4214.096 1247.633, 4217.694 1251.846, 4235.862 1267.621 L 4252.168 1281.779 4268.128 1287.484 L 4284.088 1293.189 4306.794 1292.754 C 4329.047 1292.328, 4329.784 1292.246, 4343.729 1288.635 C 4372.166 1281.272, 4392.267 1270.032, 4409.561 1251.825 C 4418.617 1242.290, 4421.434 1238.523, 4424.977 1231.209 C 4426.583 1227.894, 4428.357 1224.897, 4428.920 1224.550 C 4431.989 1222.653, 4438.645 1202.587, 4440.057 1190.972 C 4441.223 1181.384, 4439.894 1165.551, 4435.906 1141.500 C 4432.421 1120.482, 4423.458 1107.693, 4395.500 1083.838 C 4367.615 1060.047, 4331.028 1049.275, 4294.339 1054.056" stroke="none" fill="#000000" fill-rule="evenodd"/>
</svg>